<svg width="40" height="40" viewBox="0 0 40 40" fill="none" xmlns="http://www.w3.org/2000/svg">
<g id="Frame" clip-path="url(#clip0_3319_1971)">
<g id="Group">
<g id="Group_2">
<path id="Vector" d="M25.2207 24.4177L25.783 23.6948V31.0844C24.0159 32.0482 21.9276 32.5301 19.9195 32.5301C13.0119 32.5301 7.30908 26.9077 7.30908 19.9197C7.30908 13.0121 12.9316 7.30927 19.9195 7.30927C23.293 7.30927 26.5059 8.67473 28.8352 11.004L29.3171 11.486L24.8191 14.9398L24.4175 14.6185C23.1324 13.494 21.526 12.9318 19.8392 12.9318C15.9838 12.9318 12.8513 16.0643 12.8513 19.9197C12.8513 23.7751 15.9838 26.8273 19.8392 26.8273C21.9276 26.9077 23.8553 26.0241 25.2207 24.4177Z" fill="white"/>
<path id="Vector_2" d="M32.6105 20C32.6105 21.0442 32.4498 22.0884 32.2088 23.0522C32.0482 23.5342 31.9679 24.0161 31.7269 24.498C30.9237 26.5864 29.6386 28.4338 27.8715 29.7992C27.7109 29.8795 27.6305 30.0402 27.4699 30.1205V21.3655H21.4458L27.3093 16.8675H32.1285C32.4498 17.9117 32.6105 18.9558 32.6105 20Z" fill="white"/>
</g>
<g id="Group_3">
<path id="Vector_3" d="M16.7871 0.0803213C8.11245 1.36546 1.36546 8.19277 0.0803213 16.8675L0 17.1084L4.81928 18.7149V18.3133C5.62249 11.245 11.245 5.62249 18.3133 4.81928H18.7149L17.1084 0L16.7871 0.0803213Z" fill="white"/>
<path id="Vector_4" d="M35.1004 18.3133L35.1807 18.7149L40 17.1084L39.9197 16.8675C38.5542 8.19277 31.8072 1.44578 23.1325 0.0803213L22.8916 0L21.2852 4.81928H21.6868C28.6747 5.62249 34.3775 11.3253 35.1004 18.3133Z" fill="white"/>
<path id="Vector_5" d="M4.81928 21.6868V21.2852L0 22.8916L0.0803213 23.1325C1.44578 31.8072 8.19277 38.5542 16.7871 39.9197L17.0281 40L18.6345 35.1807L18.2329 35.1004C11.245 34.3775 5.62249 28.6747 4.81928 21.6868Z" fill="white"/>
<path id="Vector_6" d="M35.1002 21.6868C34.297 28.755 28.6745 34.3775 21.6062 35.1807L21.2046 35.2611L22.811 40.0803L23.052 40C31.807 38.5542 38.554 31.8072 39.9195 23.1325L39.9998 22.8916L35.1805 21.2852L35.1002 21.6868Z" fill="white"/>
</g>
</g>
</g>
<defs>
<clipPath id="clip0_3319_1971">
<rect width="40" height="40" fill="white"/>
</clipPath>
</defs>
</svg>
