<svg width="157" height="40" viewBox="0 0 157 40" fill="none" xmlns="http://www.w3.org/2000/svg">
<g id="Mecca Bingo">
<g id="Group 3">
<mask id="mask0_2785_5646" style="mask-type:luminance" maskUnits="userSpaceOnUse" x="0" y="4" width="32" height="33">
<path id="Clip 2" fill-rule="evenodd" clip-rule="evenodd" d="M0 4.51245H31.5388V36.0515H0V4.51245Z" fill="white"/>
</mask>
<g mask="url(#mask0_2785_5646)">
<path id="Fill 1" fill-rule="evenodd" clip-rule="evenodd" d="M31.2611 17.3514C32.8797 25.9073 27.256 34.1553 18.6998 35.7738C10.1444 37.3924 1.89616 31.7684 0.277568 23.213C-1.34075 14.6571 4.2827 6.40888 12.8386 4.79001C21.3949 3.17169 29.6423 8.79541 31.2611 17.3514Z" fill="#E12482"/>
</g>
</g>
<path id="Fill 4" fill-rule="evenodd" clip-rule="evenodd" d="M23.1768 25.3882L20.0201 25.9852L18.7553 19.2996L16.6828 24.8533L16.3638 24.9134L12.4276 20.5148L13.6891 27.1833L10.5142 27.7836L8.16602 15.3698L11.3406 14.7692L15.5002 19.4744L17.6716 13.5717L20.8283 12.9741L23.1768 25.3882Z" fill="white"/>
<g id="Group 8">
<mask id="mask1_2785_5646" style="mask-type:luminance" maskUnits="userSpaceOnUse" x="31" y="8" width="33" height="33">
<path id="Clip 7" fill-rule="evenodd" clip-rule="evenodd" d="M31.5088 8.46143H63.0476V40.0002H31.5088V8.46143Z" fill="white"/>
</mask>
<g mask="url(#mask1_2785_5646)">
<path id="Fill 6" fill-rule="evenodd" clip-rule="evenodd" d="M62.7679 27.1727C61.1432 35.7272 52.8911 41.3449 44.3363 39.7205C35.7817 38.0958 30.1641 29.8438 31.7884 21.2889C33.4137 12.7344 41.6655 7.1167 50.22 8.74109C58.7752 10.3663 64.3925 18.6181 62.7679 27.1727Z" fill="#F2A600"/>
</g>
</g>
<path id="Fill 9" fill-rule="evenodd" clip-rule="evenodd" d="M50.7176 28.3057L50.1517 31.2848L42.1724 29.7694L44.5297 17.3572L52.4203 18.8558L51.858 21.8167L47.1415 20.9208L46.8147 22.6409L51.0882 23.4524L50.5325 26.3783L46.2591 25.5665L45.9122 27.393L50.7176 28.3057Z" fill="white"/>
<path id="Fill 11" fill-rule="evenodd" clip-rule="evenodd" d="M93.9975 19.7697C92.8655 28.4037 84.9488 34.4843 76.3148 33.3524C67.6811 32.2199 61.5999 24.3031 62.7324 15.6697C63.8646 7.03573 71.7813 0.955102 80.415 2.08729C89.0487 3.21948 95.1294 11.136 93.9975 19.7697Z" fill="#6624CF"/>
<path id="Fill 13" fill-rule="evenodd" clip-rule="evenodd" d="M72.25 16.9957C72.7336 13.3093 75.8448 10.8227 79.6384 11.3201C81.929 11.6207 83.8167 13.0515 84.6715 15.0021L81.6883 16.2313C81.3227 15.2728 80.3909 14.6044 79.2279 14.452C77.2053 14.187 75.6984 15.4091 75.4353 17.4131C75.1726 19.4175 76.3138 20.987 78.3358 21.2523C79.4995 21.4048 80.5718 20.9997 81.1746 20.1501L83.7373 22.1247C82.4085 23.7888 80.2335 24.6869 77.9255 24.3844C74.1314 23.8864 71.7663 20.6823 72.25 16.9957Z" fill="white"/>
<path id="Fill 15" fill-rule="evenodd" clip-rule="evenodd" d="M125.792 14.7285C126.365 23.4171 119.787 30.9257 111.098 31.4993C102.41 32.0728 94.9014 25.4948 94.3273 16.8056C93.7538 8.11705 100.332 0.60892 109.021 0.0348281C117.709 -0.538712 125.218 6.03963 125.792 14.7285Z" fill="#00C499"/>
<path id="Fill 17" fill-rule="evenodd" clip-rule="evenodd" d="M103.909 16.2502C103.664 12.5406 106.23 9.49509 110.048 9.24279C112.353 9.09058 114.484 10.1254 115.702 11.872L113.017 13.6593C112.471 12.7907 111.427 12.317 110.257 12.3945C108.221 12.5288 106.981 14.0216 107.114 16.0384C107.247 18.0557 108.673 19.3721 110.708 19.2381C111.878 19.1606 112.852 18.5537 113.277 17.6032L116.176 19.0401C115.197 20.9314 113.239 22.2365 110.916 22.3898C107.098 22.6421 104.154 19.96 103.909 16.2502Z" fill="white"/>
<path id="Fill 19" fill-rule="evenodd" clip-rule="evenodd" d="M156.391 21.155C157.782 29.7509 151.941 37.8469 143.345 39.238C134.75 40.6291 126.654 34.7884 125.263 26.193C123.872 17.5971 129.712 9.50082 138.308 8.10971C146.904 6.71887 155 12.5593 156.391 21.155Z" fill="#36BFF0"/>
<path id="Fill 21" fill-rule="evenodd" clip-rule="evenodd" d="M142.846 25.2304L140.895 21.1946L140.334 25.6373L142.846 25.2304ZM144.11 27.8417L139.958 28.5137L139.715 30.3998L136.258 30.959L138.356 17.821L142.24 17.1926L148.374 28.9982L144.936 29.5546L144.11 27.8417Z" fill="white"/>
</g>
</svg>
